<svg 
 xmlns="http://www.w3.org/2000/svg"
 xmlns:xlink="http://www.w3.org/1999/xlink"
 width="1413.661px" height="866.662px">
<path fill-rule="evenodd"  stroke="rgb(255, 255, 255)" stroke-width="0.441px" stroke-linecap="butt" stroke-linejoin="miter" fill="rgb(255, 255, 255)"
 d="M6.730,211.055 L6.730,210.614 L1413.034,210.614 L1413.034,211.055 L6.730,211.055 Z"/>
<path fill-rule="evenodd"  stroke="rgb(255, 255, 255)" stroke-width="0.441px" stroke-linecap="butt" stroke-linejoin="miter" fill="rgb(255, 255, 255)"
 d="M1404.655,655.524 L1048.779,655.524 L1048.779,850.861 L1048.338,850.861 L1048.338,655.524 L709.221,655.524 L709.221,865.412 L708.779,865.412 L708.779,655.524 L368.779,655.524 L368.779,857.035 L368.338,857.035 L368.338,655.524 L0.556,655.524 L0.556,655.083 L368.338,655.083 L368.338,2.490 L368.779,2.490 L368.779,655.083 L708.779,655.083 L708.779,0.285 L709.221,0.285 L709.221,655.083 L1048.338,655.083 L1048.338,4.695 L1048.779,4.695 L1048.779,655.083 L1404.655,655.083 L1404.655,655.524 Z"/>
<path fill-rule="evenodd"  stroke="rgb(255, 255, 255)" stroke-width="0.441px" stroke-linecap="butt" stroke-linejoin="miter" fill="rgb(255, 255, 255)"
 d="M368.346,207.534 C370.052,207.534 371.434,208.917 371.434,210.622 C371.434,212.328 370.052,213.710 368.346,213.710 C366.641,213.710 365.258,212.328 365.258,210.622 C365.258,208.917 366.641,207.534 368.346,207.534 Z"/>
<path fill-rule="evenodd"  stroke="rgb(255, 255, 255)" stroke-width="0.441px" stroke-linecap="butt" stroke-linejoin="miter" fill="rgb(255, 255, 255)"
 d="M368.346,652.434 C370.052,652.434 371.434,653.817 371.434,655.522 C371.434,657.227 370.052,658.610 368.346,658.610 C366.641,658.610 365.258,657.227 365.258,655.522 C365.258,653.817 366.641,652.434 368.346,652.434 Z"/>
<path fill-rule="evenodd"  stroke="rgb(255, 255, 255)" stroke-width="0.441px" stroke-linecap="butt" stroke-linejoin="miter" fill="rgb(255, 255, 255)"
 d="M709.221,652.434 C710.920,652.434 712.297,653.817 712.297,655.522 C712.297,657.227 710.920,658.610 709.221,658.610 C707.521,658.610 706.144,657.227 706.144,655.522 C706.144,653.817 707.521,652.434 709.221,652.434 Z"/>
<path fill-rule="evenodd"  stroke="rgb(255, 255, 255)" stroke-width="0.441px" stroke-linecap="butt" stroke-linejoin="miter" fill="rgb(255, 255, 255)"
 d="M1048.346,652.434 C1050.052,652.434 1051.434,653.817 1051.434,655.522 C1051.434,657.227 1050.052,658.610 1048.346,658.610 C1046.641,658.610 1045.258,657.227 1045.258,655.522 C1045.258,653.817 1046.641,652.434 1048.346,652.434 Z"/>
<path fill-rule="evenodd"  stroke="rgb(255, 255, 255)" stroke-width="0.441px" stroke-linecap="butt" stroke-linejoin="miter" fill="rgb(255, 255, 255)"
 d="M1048.346,207.977 C1050.052,207.977 1051.434,209.360 1051.434,211.065 C1051.434,212.770 1050.052,214.153 1048.346,214.153 C1046.641,214.153 1045.258,212.770 1045.258,211.065 C1045.258,209.360 1046.641,207.977 1048.346,207.977 Z"/>
<path fill-rule="evenodd"  stroke="rgb(255, 255, 255)" stroke-width="0.441px" stroke-linecap="butt" stroke-linejoin="miter" fill="rgb(255, 255, 255)"
 d="M708.789,207.534 C710.494,207.534 711.877,208.917 711.877,210.622 C711.877,212.328 710.494,213.710 708.789,213.710 C707.083,213.710 705.701,212.328 705.701,210.622 C705.701,208.917 707.083,207.534 708.789,207.534 Z"/>
</svg>