<?xml version="1.0" encoding="utf-8"?>
<!-- Generator: Adobe Illustrator 19.0.0, SVG Export Plug-In . SVG Version: 6.00 Build 0)  -->
<svg version="1.1" id="Layer_1" xmlns="http://www.w3.org/2000/svg" xmlns:xlink="http://www.w3.org/1999/xlink" x="0px" y="0px"
	 viewBox="231 -292.1 621.1 621.1" style="enable-background:new 231 -292.1 621.1 621.1;" xml:space="preserve">
<style type="text/css">
	.st0{fill:#6A6A6A;}
	.st1{fill:#181818;}
</style>
<rect x="249.7" y="-279.3" class="st0" width="581.1" height="580.6"/>
<path class="st1" d="M231-292.4h621.1v621.1H231V-292.4L231-292.4z M611.9-32.8l-8.2-47.8L436.2-51.2l24.6,139.9l16.6-2.8v12h170.1
	V-32.8H611.9L611.9-32.8z M477.4,71.9l-5.4,1l-20-112.8l140.4-24.8l5.6,32H477.4V71.9L477.4,71.9L477.4,71.9z M633.7,84.1H491.2
	V-18.9h142.5V84.1L633.7,84.1z M500.4-9.7v76.5l28.9-19.2l17.9,11.3L590.7,11l5.6,2.3l28.1,32.5V-9.7H500.4L500.4-9.7L500.4-9.7z
	 M528,23.3c-6.6,0-12.3-5.6-12.3-12.3c0-6.6,5.6-12.3,12.3-12.3c6.7,0,12.3,5.6,12.3,12.3C540.3,17.6,534.7,23.3,528,23.3L528,23.3
	L528,23.3z"/>
</svg>
