<?xml version="1.0" encoding="iso-8859-1"?>
<!-- Generator: Adobe Illustrator 19.0.0, SVG Export Plug-In . SVG Version: 6.00 Build 0)  -->
<svg xmlns="http://www.w3.org/2000/svg" xmlns:xlink="http://www.w3.org/1999/xlink" version="1.1" id="Layer_1" x="0px" y="0px" viewBox="0 0 512 512" style="enable-background:new 0 0 512 512;" xml:space="preserve" width="512px" height="512px">
<g>
	<g>
		<path d="M256,65.164c-5.141,0-9.309,4.168-9.309,9.309v93.091c0,5.141,4.168,9.309,9.309,9.309c5.141,0,9.309-4.168,9.309-9.309    V74.473C265.309,69.332,261.141,65.164,256,65.164z" fill="#FFFFFF"/>
	</g>
</g>
<g>
	<g>
		<circle cx="293.237" cy="93.091" r="18.618" fill="#FFFFFF"/>
	</g>
</g>
<g>
	<g>
		<path d="M404.939,8.958C404.75,3.957,400.641,0,395.636,0H116.364c-5.005,0-9.114,3.957-9.302,8.958L88.443,502.341    c-0.095,2.527,0.841,4.984,2.598,6.807c1.755,1.823,4.175,2.852,6.705,2.852h121.018c4.791,0,8.8-3.636,9.266-8.404    l21.875-224.228c2.086-21.394,4.254-35.099,6.095-43.832c1.839,8.733,4.007,22.437,6.093,43.832l21.877,224.228    c0.466,4.768,4.475,8.404,9.266,8.404h121.018c2.529,0,4.95-1.03,6.705-2.852c1.757-1.823,2.693-4.28,2.598-6.807L404.939,8.958z     M339.782,18.618h46.891l0.702,18.618h-47.593V18.618z M265.309,18.618h55.855v18.618h-55.855V18.618z M181.527,18.618h65.164    v18.618h-65.164V18.618z M125.327,18.618h37.582v18.618h-38.284L125.327,18.618z M301.682,493.382l-21.057-215.823    c-2.116-21.686-4.607-38.574-7.4-50.194c-1.971-8.192-5.639-23.442-17.225-23.442c-11.586,0-15.255,15.248-17.225,23.438    c-2.796,11.621-5.284,28.509-7.402,50.199l-21.054,215.823H107.411l12.632-334.74c0.693,0.029,1.422,0.051,2.22,0.051    c7.532,0,19.477-1.568,30.918-9.664c15.095-10.678,24.6-29.057,28.252-54.622c0.727-5.09-2.809-9.806-7.9-10.533    c-5.079-0.725-9.805,2.81-10.532,7.899c-2.877,20.144-9.718,34.236-20.334,41.885c-8.583,6.186-17.586,6.635-21.924,6.411    l3.178-84.215h38.987h18.618h65.164h18.618h55.855h18.618h48.296l3.178,84.214c-4.335,0.226-13.338-0.22-21.924-6.409    c-10.616-7.649-17.457-21.741-20.334-41.885c-0.727-5.09-5.45-8.62-10.532-7.899c-5.091,0.727-8.627,5.443-7.9,10.533    c3.652,25.565,13.157,43.943,28.252,54.622c11.443,8.097,23.386,9.664,30.918,9.664c0.798,0,1.527-0.022,2.22-0.051l12.632,334.74    H301.682z" fill="#FFFFFF"/>
	</g>
</g>
<g>
</g>
<g>
</g>
<g>
</g>
<g>
</g>
<g>
</g>
<g>
</g>
<g>
</g>
<g>
</g>
<g>
</g>
<g>
</g>
<g>
</g>
<g>
</g>
<g>
</g>
<g>
</g>
<g>
</g>
</svg>
