<?xml version="1.0" encoding="iso-8859-1"?>
<!-- Generator: Adobe Illustrator 19.0.0, SVG Export Plug-In . SVG Version: 6.00 Build 0)  -->
<svg xmlns="http://www.w3.org/2000/svg" xmlns:xlink="http://www.w3.org/1999/xlink" version="1.1" id="Layer_1" x="0px" y="0px" viewBox="0 0 512 512" style="enable-background:new 0 0 512 512;" xml:space="preserve" width="512px" height="512px">
<g>
	<g>
		<path d="M510.704,210.535L413.401,49.494c-9.31-15.413-30.695-27.487-48.683-27.487H148.724    c-17.964,0-39.413,12.025-48.833,27.377L1.329,210.032c-1.257,2.047-1.641,4.511-1.072,6.843c0.571,2.332,2.05,4.341,4.107,5.578    l84.856,50.987c2.048,1.228,4.495,1.596,6.813,1.018c2.316-0.578,4.307-2.051,5.537-4.098l11.155-18.565v229.198    c0,4.97,4.03,9,9,9h269.992c4.97,0,9-4.03,9-9V254.644l9.714,16.166c2.558,4.26,8.086,5.638,12.351,3.079l84.856-50.987    c2.048-1.232,3.524-3.228,4.1-5.548C512.31,215.034,511.939,212.58,510.704,210.535z M319.066,40.006    c-4.381,30.488-30.664,53.998-62.345,53.998s-57.964-23.51-62.345-53.998H319.066z M90.777,253.377L21.42,211.703l6.444-10.503    l68.528,42.83L90.777,253.377z M382.717,471.994H130.725v-17.999h251.993V471.994z M406.533,229.378l-7.102-11.82    c-2.081-3.465-6.207-5.118-10.12-4.037c-3.896,1.081-6.594,4.628-6.594,8.672v213.802H130.725V219.344    c0-4.044-2.698-7.591-6.594-8.672c-3.909-1.084-8.037,0.574-10.12,4.037l-8.346,13.891l-68.387-42.742l77.955-127.061    c6.143-10.009,21.792-18.79,33.492-18.79h27.511c4.493,40.441,38.866,71.998,80.486,71.998s75.993-31.557,80.486-71.998h27.511    c11.885,0,27.122,8.606,33.276,18.795l77.154,127.692L406.533,229.378z M421.223,253.826l-5.418-9.018l68.653-42.908l6.175,10.221    L421.223,253.826z" fill="#FFFFFF"/>
	</g>
</g>
<g>
</g>
<g>
</g>
<g>
</g>
<g>
</g>
<g>
</g>
<g>
</g>
<g>
</g>
<g>
</g>
<g>
</g>
<g>
</g>
<g>
</g>
<g>
</g>
<g>
</g>
<g>
</g>
<g>
</g>
</svg>
