<?xml version="1.0" encoding="iso-8859-1"?>
<!-- Generator: Adobe Illustrator 19.0.0, SVG Export Plug-In . SVG Version: 6.00 Build 0)  -->
<svg xmlns="http://www.w3.org/2000/svg" xmlns:xlink="http://www.w3.org/1999/xlink" version="1.1" id="Layer_1" x="0px" y="0px" viewBox="0 0 512 512" style="enable-background:new 0 0 512 512;" xml:space="preserve" width="512px" height="512px">
<g>
	<g>
		<path d="M211.37,135.58c-7.465,0-13.524,6.059-13.524,13.524c0,7.479,6.059,13.524,13.524,13.524    c7.465,0,13.524-6.045,13.524-13.524C224.894,141.639,218.835,135.58,211.37,135.58z" fill="#FFFFFF"/>
	</g>
</g>
<g>
	<g>
		<path d="M211.37,177.965c-7.465,0-13.524,6.045-13.524,13.524c0,7.465,6.059,13.524,13.524,13.524    c7.465,0,13.524-6.059,13.524-13.524C224.894,184.011,218.835,177.965,211.37,177.965z" fill="#FFFFFF"/>
	</g>
</g>
<g>
	<g>
		<path d="M368.116,10.779H143.884C64.547,10.779,0,75.325,0,154.663v333.034c0,7.469,6.055,13.524,13.524,13.524h95.481h293.99    h95.481c7.469,0,13.524-6.055,13.524-13.524V154.663C512,75.325,447.454,10.779,368.116,10.779z M324.846,37.827    c-6.3,31.413-34.092,55.152-67.332,55.152c-33.24,0-61.032-23.739-67.332-55.152H324.846z M95.481,474.173H27.048V443.54h68.433    V474.173z M389.471,474.173H122.529V443.54h266.941V474.173z M484.952,474.173h-68.433V443.54h68.433V474.173z M484.952,416.492    h-68.433v-212.52c0-7.469-6.055-13.524-13.524-13.524c-7.469,0-13.524,6.055-13.524,13.524v212.52H122.529V160.695    c0-7.469-6.055-13.524-13.524-13.524s-13.524,6.055-13.524,13.524v255.797H27.048V154.663    c0-64.423,52.412-116.836,116.836-116.836h18.878c5.964,41.978,39.25,75.262,81.228,81.226v83.471    c0,7.469,6.055,13.524,13.524,13.524s13.524-6.055,13.524-13.524v-83.471c41.978-5.964,75.262-39.249,81.227-81.226h15.85    c64.424,0,116.836,52.412,116.836,116.836V416.492z" fill="#FFFFFF"/>
	</g>
</g>
<g>
	<g>
		<path d="M402.995,147.171c-7.465,0-13.524,6.045-13.524,13.524c0,7.465,6.059,13.524,13.524,13.524    c7.479,0,13.524-6.059,13.524-13.524C416.519,153.216,410.474,147.171,402.995,147.171z" fill="#FFFFFF"/>
	</g>
</g>
<g>
</g>
<g>
</g>
<g>
</g>
<g>
</g>
<g>
</g>
<g>
</g>
<g>
</g>
<g>
</g>
<g>
</g>
<g>
</g>
<g>
</g>
<g>
</g>
<g>
</g>
<g>
</g>
<g>
</g>
</svg>
