<?xml version="1.0" encoding="iso-8859-1"?>
<!-- Generator: Adobe Illustrator 19.0.0, SVG Export Plug-In . SVG Version: 6.00 Build 0)  -->
<svg xmlns="http://www.w3.org/2000/svg" xmlns:xlink="http://www.w3.org/1999/xlink" version="1.1" id="Layer_1" x="0px" y="0px" viewBox="0 0 512 512" style="enable-background:new 0 0 512 512;" xml:space="preserve">
<g>
	<g>
		<path d="M494.339,376.62V140.524l-87.565-87.565h-18.353V0h-95.553L256,47.399L219.131,0h-95.553v52.959h-18.364l-87.566,87.565    V376.62H0v64.76h35.31v41.193h64.725V512H256h155.953v-29.427h64.737V441.38H512v-64.76H494.339z M35.334,182.456h29.403v64.701    H35.334V182.456z M100.035,464.889H52.994V441.38h47.041V464.889z M100.035,423.696H17.684v-29.392h82.351V423.696z     M247.159,229.497h-20.585v17.684h20.585v41.169h-20.585v17.684h20.585v41.158h-20.585v17.684h20.585v41.169h-20.585v17.684    h20.585v70.585h-129.44V226.573h-17.684V376.62H35.334V264.842h47.088v-100.07H35.334v-16.923l77.207-77.206h90.502V52.959    h-61.778V17.684h69.219l36.675,47.15V229.497z M411.952,376.621V226.573h-17.684v267.742H264.842v-70.584h20.585v-17.684h-20.585    v-41.169h20.585v-17.684h-20.585v-41.158h20.585v-17.684h-20.585v-41.169h20.585v-17.684h-20.585V64.835l36.675-47.15h69.219    v35.275h-61.778v17.684h90.489l77.206,77.206v16.923h-47.076v100.07h47.076v111.779H411.952z M476.655,182.456v64.701h-29.392    v-64.701H476.655z M459.006,464.889h-47.052V441.38h47.052V464.889z M411.953,423.696v-29.392h82.362v29.392H411.953z" fill="#FFFFFF"/>
	</g>
</g>
<g>
	<g>
		<rect x="297.193" y="176.538" width="76.503" height="17.684" fill="#FFFFFF"/>
	</g>
</g>
<g>
	<g>
		<rect x="138.304" y="176.538" width="76.503" height="17.684" fill="#FFFFFF"/>
	</g>
</g>
<g>
</g>
<g>
</g>
<g>
</g>
<g>
</g>
<g>
</g>
<g>
</g>
<g>
</g>
<g>
</g>
<g>
</g>
<g>
</g>
<g>
</g>
<g>
</g>
<g>
</g>
<g>
</g>
<g>
</g>
</svg>
