<?xml version="1.0" encoding="iso-8859-1"?>
<!-- Generator: Adobe Illustrator 19.0.0, SVG Export Plug-In . SVG Version: 6.00 Build 0)  -->
<svg xmlns="http://www.w3.org/2000/svg" xmlns:xlink="http://www.w3.org/1999/xlink" version="1.1" id="Capa_1" x="0px" y="0px" viewBox="0 0 512.002 512.002" style="enable-background:new 0 0 512.002 512.002;" xml:space="preserve" width="512px" height="512px">
<g>
	<g>
		<path d="M201.531,195.3c-1.86-1.86-4.43-2.92-7.06-2.92c-2.64,0-5.22,1.06-7.08,2.92c-1.86,1.87-2.93,4.45-2.93,7.08    s1.069,5.2,2.93,7.07c1.87,1.86,4.44,2.93,7.08,2.93c2.63,0,5.2-1.07,7.06-2.93c1.87-1.86,2.931-4.44,2.931-7.07    C204.462,199.74,203.401,197.17,201.531,195.3z" fill="#FFFFFF"/>
	</g>
</g>
<g>
	<g>
		<path d="M324.61,195.31c-1.859-1.87-4.439-2.93-7.08-2.93c-2.63,0-5.21,1.06-7.069,2.93c-1.86,1.85-2.92,4.43-2.92,7.07    c0,2.63,1.06,5.21,2.92,7.07c1.87,1.86,4.439,2.93,7.069,2.93c2.641,0,5.211-1.07,7.08-2.93c1.86-1.86,2.92-4.44,2.92-7.07    C327.53,199.74,326.47,197.16,324.61,195.31z" fill="#FFFFFF"/>
	</g>
</g>
<g>
	<g>
		<path d="M511.874,432.436L463.07,128.893c-3.729-23.193-18.719-42.854-40.097-52.591l-37.972-17.296    c0.561-1.166,0.909-2.438,0.984-3.766c0.183-3.262-1.239-6.408-3.809-8.426L325.271,2.135c-0.001,0.003-0.003,0.005-0.004,0.008    C323.536,0.784,321.376,0,319.096,0H192.907c-2.453,0-4.76,0.911-6.549,2.465l-56.485,44.348    c-2.569,2.017-3.991,5.162-3.809,8.424c0.074,1.322,0.419,2.589,0.975,3.751l-38.01,17.313    c-21.379,9.738-36.369,29.398-40.097,52.592L0.128,432.436c-0.819,5.094,2.372,9.976,7.367,11.269l54,13.977    c0.826,0.214,1.668,0.319,2.506,0.319c1.898,0,3.777-0.541,5.404-1.586c2.345-1.506,3.955-3.923,4.441-6.667L96,324.908v177.093    c0,5.523,4.478,10,10,10h300c5.522,0,10-4.477,10-10v-86v-64v-27.093l22.154,124.84c0.486,2.744,2.097,5.161,4.441,6.667    c1.627,1.045,3.506,1.586,5.404,1.586c0.838,0,1.68-0.105,2.506-0.319l54-13.977C509.502,442.412,512.693,437.53,511.874,432.436z     M299.804,20l-43.747,62.02L212.221,20H299.804z M236,492H116v-66h0.001h86.016c5.522,0,10-4.477,10-10v-64v-42.016    c0-5.523-4.478-10-10-10h-86.016V184.2c0-5.523-4.478-10-10-10c-5.522,0-10,4.477-10,10v26.251l-39.958,225.16l-34.724-8.987    l47.358-294.556c2.664-16.567,13.37-30.61,28.642-37.565l48.438-22.063l38.708,23.938v71.425c0,5.523,4.478,10,10,10    c5.522,0,10-4.477,10-10v-59.057L236,128.247V492z M192.017,362v44h-76.016v-44H192.017z M116.001,342v-22.016h76.016V342H116.001    z M153.484,53.704l37.344-29.32l57.07,80.745c1.874,2.651,4.919,4.228,8.166,4.228c0.002,0,0.003,0,0.003,0    c3.251-0.001,6.296-1.581,8.169-4.236l56.963-80.755L358.56,53.7l-102.586,63.384L153.484,53.704z M396.001,342h-76.016v-22.016    h76.016V342z M396.001,362v44h-76.016v-44H396.001z M455.959,435.611l-39.958-225.16V184.2c0-5.523-4.478-10-10-10    c-5.522,0-10,4.477-10,10v115.784h-86.016c-5.522,0-10,4.477-10,10V352v64c0,5.523,4.478,10,10,10h86.016v66h-140V140.576    l4.655-2.876c0.431-0.226,0.848-0.479,1.245-0.769l45.635-28.196v59.068c0,5.523,4.478,10,10,10c5.522,0,10-4.477,10-10V96.378    l38.729-23.929l48.419,22.053c15.271,6.955,25.977,20.998,28.641,37.565l47.358,294.556L455.959,435.611z" fill="#FFFFFF"/>
	</g>
</g>
<g>
	<g>
		<path d="M273.508,413.935c-5.522,0-10,4.477-10,10v0.266c0,5.523,4.478,10,10,10c5.522,0,10-4.477,10-10v-0.266    C283.508,418.412,279.03,413.935,273.508,413.935z" fill="#FFFFFF"/>
	</g>
</g>
<g>
	<g>
		<path d="M273.508,334.023c-5.522,0-10,4.477-10,10v0.266c0,5.523,4.478,10,10,10c5.522,0,10-4.477,10-10v-0.266    C283.508,338.5,279.03,334.023,273.508,334.023z" fill="#FFFFFF"/>
	</g>
</g>
<g>
	<g>
		<path d="M273.508,254.111c-5.522,0-10,4.477-10,10v0.266c0,5.523,4.478,10,10,10c5.522,0,10-4.477,10-10v-0.266    C283.508,258.588,279.03,254.111,273.508,254.111z" fill="#FFFFFF"/>
	</g>
</g>
<g>
	<g>
		<path d="M273.508,174.2c-5.522,0-10,4.477-10,10v0.266c0,5.523,4.478,10,10,10c5.522,0,10-4.477,10-10V184.2    C283.508,178.677,279.03,174.2,273.508,174.2z" fill="#FFFFFF"/>
	</g>
</g>
<g>
	<g>
		<path d="M365.06,323.6c-1.859-1.87-4.439-2.93-7.069-2.93c-2.631,0-5.211,1.06-7.07,2.93c-1.86,1.86-2.93,4.43-2.93,7.07    c0,2.63,1.069,5.2,2.93,7.07c1.859,1.86,4.439,2.93,7.07,2.93c2.64,0,5.21-1.07,7.069-2.93c1.86-1.87,2.931-4.44,2.931-7.07    C367.991,328.03,366.921,325.46,365.06,323.6z" fill="#FFFFFF"/>
	</g>
</g>
<g>
	<g>
		<path d="M163.06,323.59c-1.859-1.86-4.439-2.92-7.069-2.92c-2.631,0-5.211,1.06-7.07,2.92c-1.86,1.87-2.93,4.44-2.93,7.08    c0,2.63,1.069,5.21,2.93,7.07c1.859,1.86,4.439,2.93,7.07,2.93c2.63,0,5.21-1.07,7.069-2.93c1.86-1.87,2.931-4.44,2.931-7.07    C165.991,328.03,164.921,325.46,163.06,323.59z" fill="#FFFFFF"/>
	</g>
</g>
<g>
</g>
<g>
</g>
<g>
</g>
<g>
</g>
<g>
</g>
<g>
</g>
<g>
</g>
<g>
</g>
<g>
</g>
<g>
</g>
<g>
</g>
<g>
</g>
<g>
</g>
<g>
</g>
<g>
</g>
</svg>
