<?xml version="1.0" encoding="iso-8859-1"?>
<!-- Generator: Adobe Illustrator 19.0.0, SVG Export Plug-In . SVG Version: 6.00 Build 0)  -->
<svg xmlns="http://www.w3.org/2000/svg" xmlns:xlink="http://www.w3.org/1999/xlink" version="1.1" id="Capa_1" x="0px" y="0px" viewBox="0 0 512 512" style="enable-background:new 0 0 512 512;" xml:space="preserve" width="512px" height="512px">
<g>
	<g>
		<path d="M183.753,272.45h-16.076c-5.523,0-10,4.478-10,10c0,5.522,4.477,10,10,10h16.076c5.523,0,10-4.478,10-10    C193.753,276.928,189.276,272.45,183.753,272.45z" fill="#FFFFFF"/>
	</g>
</g>
<g>
	<g>
		<path d="M155.893,366.169c-0.062,0-0.125,0.001-0.187,0.002c-5.523,0-10,4.478-10,10c0,5.522,4.477,10,10,10l0.343-0.003    c5.522-0.101,9.928-4.66,9.827-10.182C165.776,370.526,161.331,366.169,155.893,366.169z" fill="#FFFFFF"/>
	</g>
</g>
<g>
	<g>
		<path d="M155.867,334.261h-0.16c-5.523,0-10,4.478-10,10c0,5.522,4.477,10,10,10h0.16c5.523,0,10-4.478,10-10    C165.867,338.739,161.389,334.261,155.867,334.261z" fill="#FFFFFF"/>
	</g>
</g>
<g>
	<g>
		<path d="M155.867,302.351h-0.16c-5.523,0-10,4.478-10,10c0,5.522,4.477,10,10,10h0.16c5.523,0,10-4.478,10-10    C165.867,306.829,161.389,302.351,155.867,302.351z" fill="#FFFFFF"/>
	</g>
</g>
<g>
	<g>
		<path d="M421.984,288c-16.542,0-30,13.458-30,30c0,13.036,8.361,24.152,20,28.28V360c0,31.972-20.025,61.212-49.829,72.761    c-5.15,1.995-7.707,7.787-5.712,12.938c1.536,3.962,5.318,6.39,9.327,6.39c1.201,0,2.423-0.219,3.61-0.679    c18.233-7.064,33.805-19.307,45.032-35.402c11.495-16.48,17.571-35.847,17.571-56.007v-13.72c11.639-4.128,20-15.243,20-28.28    C451.984,301.458,438.526,288,421.984,288z M431.024,322.247c-1.599-3.393-5.041-5.747-9.04-5.747s-7.441,2.354-9.04,5.747    c-0.609-1.291-0.96-2.727-0.96-4.247c0-5.514,4.486-10,10-10c5.514,0,10,4.486,10,10    C431.984,319.52,431.633,320.955,431.024,322.247z" fill="#FFFFFF"/>
	</g>
</g>
<g>
	<g>
		<path d="M334.141,438h-0.156c-5.523,0-10,4.478-10,10c0,5.522,4.477,10,10,10h0.156c5.523,0,10-4.478,10-10    C344.141,442.478,339.664,438,334.141,438z" fill="#FFFFFF"/>
	</g>
</g>
<g>
	<g>
		<path d="M501.984,246h-12.063V119.961c0.067-0.667,0.067-1.338,0-2.005V36.778V10c0-5.522-4.477-10-10-10h-208    c-5.523,0-10,4.478-10,10v26.778V246h-5.938v-65.778c0-4.545-3.226-8.67-7.66-9.723l-27.578-6.637l-47.239-13.805    c-0.939-0.275-1.959-0.414-2.936-0.401H85.443c-0.983-0.016-2.006,0.126-2.951,0.401l-47.239,13.805l-27.578,6.637    c-4.432,1.053-7.66,5.179-7.66,9.723v231.863c0,5.522,4.477,10,10,10h32.031H128h27.984V502c0,5.522,4.477,10,10,10h336    c5.523,0,10-4.478,10-10V256C511.984,250.478,507.508,246,501.984,246z M281.922,20h188v6.778h-188V20z M440.797,93.925    l29.124,29.124V246h-59.596l-22.401-117.613c13.743-2.715,24.139-14.856,24.139-29.384V46.778h57.858v47.985L454.94,79.782    c-3.905-3.904-10.237-3.904-14.143,0C436.893,83.687,436.893,90.019,440.797,93.925z M389.966,246h-28.289l14.204-73.953    L389.966,246z M385.922,108.196V46.778h6.142v52.225C392.063,103.142,389.523,106.697,385.922,108.196z M311.097,79.782    c-3.905-3.904-10.237-3.904-14.143,0l-15.033,15.033V46.778h84v71.087L341.313,246h-59.391V123.101h-0.001l29.176-29.176    C315.003,90.02,315.003,83.688,311.097,79.782z M177.183,171.969l24.076,7.035l-42.979,55.331l-2.754,3.546L177.183,171.969z     M78.818,171.969l9.351,28.458l12.306,37.453l-45.733-58.877L78.818,171.969z M32.047,402.085H20.016V242.826l12.031,36.699    V402.085z M118,402.085H52.047V277.928c0-1.059-0.168-2.11-0.497-3.115l-28.654-87.404l10.993-2.646L118,293.047V402.085z     M99.11,169.656h57.78L128,257.583L99.11,169.656z M138,402.085V293.047l84.111-108.284l10.993,2.646l-28.654,87.404    c-0.33,1.006-0.498,2.057-0.498,3.115v124.157H138z M235.984,242.826V326.5V360v42.085h-12.031v-122.56L235.984,242.826z     M491.984,492h-316v-69.915h37.969h32.031c3.606,0,6.756-1.915,8.515-4.776c11.117,15.404,26.269,27.164,43.941,34.044    c1.192,0.465,2.419,0.685,3.625,0.685c4.002,0,7.781-2.42,9.321-6.375c2.003-5.146-0.544-10.942-5.691-12.946    c-30.199-11.758-49.712-40.301-49.712-72.716v-13.72c11.639-4.128,20-15.243,20-28.28s-8.361-24.152-20-28.28V266h15.938h77.653    h52.476h77.871h12.063V492z" fill="#FFFFFF"/>
	</g>
</g>
<g>
</g>
<g>
</g>
<g>
</g>
<g>
</g>
<g>
</g>
<g>
</g>
<g>
</g>
<g>
</g>
<g>
</g>
<g>
</g>
<g>
</g>
<g>
</g>
<g>
</g>
<g>
</g>
<g>
</g>
</svg>
