<?xml version="1.0" encoding="iso-8859-1"?>
<!-- Generator: Adobe Illustrator 19.0.0, SVG Export Plug-In . SVG Version: 6.00 Build 0)  -->
<svg xmlns="http://www.w3.org/2000/svg" xmlns:xlink="http://www.w3.org/1999/xlink" version="1.1" id="Layer_1" x="0px" y="0px" viewBox="0 0 512 512" style="enable-background:new 0 0 512 512;" xml:space="preserve" width="512px" height="512px">
<g>
	<g>
		<path d="M461.912,38.541C435.933,16.273,402.783,4.01,368.566,4.01H143.434c-34.216,0-67.367,12.263-93.345,34.531    C18.256,65.827,0,105.52,0,147.445v95.414h83.407V507.99h345.186V242.857H512v-95.414C512,105.52,493.744,65.827,461.912,38.541z     M369.736,34.023c26.645,0.276,52.404,9.94,72.652,27.295c6.239,5.348,11.817,11.301,16.681,17.732H324.71L369.736,34.023z     M327.324,34.01L256,105.335L184.675,34.01H327.324z M69.612,61.318c20.248-17.355,46.007-27.02,72.651-27.295l45.027,45.027    H52.931C57.795,72.619,63.373,66.666,69.612,61.318z M77.638,212.857H30V189.05h58.861L77.638,212.857z M398.593,477.989H113.407    v-48.938h285.186V477.989z M398.593,399.05H113.407v-50h285.186V399.05z M398.593,319.05H113.407v-50h285.186V319.05z     M398.593,239.05H113.407v-50h285.186V239.05z M482,212.857h-44.536l-15.765-23.807H482V212.857z M482,159.05H30v-11.606    c0-13.252,2.313-26.219,6.689-38.394h180.6L256,147.761l38.71-38.711h180.601c4.376,12.174,6.689,25.142,6.689,38.394V159.05z" fill="#FFFFFF"/>
	</g>
</g>
<g>
</g>
<g>
</g>
<g>
</g>
<g>
</g>
<g>
</g>
<g>
</g>
<g>
</g>
<g>
</g>
<g>
</g>
<g>
</g>
<g>
</g>
<g>
</g>
<g>
</g>
<g>
</g>
<g>
</g>
</svg>
