<?xml version="1.0" encoding="iso-8859-1"?>
<!-- Generator: Adobe Illustrator 19.0.0, SVG Export Plug-In . SVG Version: 6.00 Build 0)  -->
<svg xmlns="http://www.w3.org/2000/svg" xmlns:xlink="http://www.w3.org/1999/xlink" version="1.1" id="Capa_1" x="0px" y="0px" viewBox="0 0 511.999 511.999" style="enable-background:new 0 0 511.999 511.999;" xml:space="preserve" width="512px" height="512px">
<g>
	<g>
		<path d="M267.627,168.85c-1.825-0.11-3.71,0.278-5.429,1.228c-0.047,0.026-0.095,0.053-0.14,0.079    c-3.937,2.25-5.867,6.867-4.704,11.25c1.164,4.382,5.131,7.433,9.665,7.433h0.126c5.523,0,10-4.477,10-10    C277.146,173.477,272.927,169.101,267.627,168.85z" fill="#FFFFFF"/>
	</g>
</g>
<g>
	<g>
		<path d="M364.286,66.605c-5.182-1.908-10.931,0.746-12.839,5.929c-11.685,31.736-32.451,58.741-61.724,80.265    c-4.45,3.272-5.404,9.531-2.133,13.98c1.96,2.666,4.992,4.077,8.064,4.077c2.057,0,4.132-0.632,5.916-1.944    c32.486-23.887,55.582-53.988,68.645-89.468C372.122,74.262,369.469,68.514,364.286,66.605z" fill="#FFFFFF"/>
	</g>
</g>
<g>
	<g>
		<path d="M511.943,488.941l-38.147-357.249c-4.666-43.69-34.505-81.219-76.021-95.608l-67.143-23.273    c-2.699-1.157-5.784-1.087-8.429,0.246l-13.872,6.986c-16.164,8.142-34.273,12.445-52.372,12.445    c-18.35,0-36.685-4.417-53.022-12.775l-12.957-6.628c-2.446-1.25-5.272-1.42-7.828-0.533c0-0.004-0.001-0.008-0.001-0.013    l-67.926,23.544c-41.516,14.39-71.355,51.918-76.021,95.608L0.057,488.941c-0.301,2.821,0.61,5.637,2.506,7.747    c1.896,2.11,4.6,3.315,7.437,3.315h51.75c4.856,0,9.01-3.489,9.85-8.272l34.75-198.059v166.317c0,5.523,4.477,10,10,10h279.3    c5.523,0,10-4.477,10-10V293.672l34.75,198.059c0.839,4.783,4.994,8.272,9.85,8.272H502c2.837,0,5.541-1.205,7.437-3.315    C511.333,494.578,512.245,491.762,511.943,488.941z M255.958,52.489c21.016,0,42.046-4.953,60.856-14.326    c-1.729,21.815-11.868,63.045-60.755,91.416c-28.235-16.35-47.017-38.683-55.866-66.45c-3.013-9.454-4.34-18.075-4.872-24.857    C214.087,47.578,235.015,52.489,255.958,52.489z M458.648,480.004L458.648,480.004L405.65,177.94v-6.56l4.815-29.795    c0.881-5.452-2.825-10.586-8.277-11.467c-5.455-0.881-10.586,2.825-11.467,8.277l-4.943,30.587    c-0.085,0.527-0.128,1.061-0.128,1.595v94.949l-24-24c-3.905-3.905-10.237-3.905-14.143,0c-3.905,3.905-3.905,10.237,0,14.143    l38.143,38.143V449.99h-259.3v-20.05H195c5.523,0,10-4.477,10-10s-4.477-10-10-10h-68.65V293.664l37.996-37.996    c3.905-3.905,3.905-10.237,0-14.143c-3.905-3.905-10.237-3.905-14.143,0l-23.854,23.854v-94.802c0-0.534-0.043-1.068-0.128-1.595    l-4.943-30.587c-0.881-5.452-6.013-9.155-11.467-8.277c-5.452,0.881-9.158,6.015-8.277,11.467l4.815,29.795v6.56L53.351,480.003    H21.124L58.09,133.817c3.847-36.025,28.452-66.97,62.684-78.835l54.368-18.844c0.407,8.395,1.816,19.585,5.68,32.058    c7.413,23.929,25.61,57.458,70.201,81.476c1.506,0.881,3.251,1.379,5.083,1.379c2.021,0,3.927-0.605,5.523-1.663    c44.21-23.999,62.292-57.357,69.675-81.192c3.857-12.451,5.269-23.624,5.678-32.014l54.243,18.801    c34.232,11.865,58.837,42.81,62.684,78.835l36.966,346.186H458.648z" fill="#FFFFFF"/>
	</g>
</g>
<g>
	<g>
		<path d="M238.59,412.866c-1.86-1.86-4.44-2.93-7.07-2.93s-5.21,1.07-7.07,2.93s-2.93,4.44-2.93,7.07c0,2.64,1.07,5.21,2.93,7.08    c1.86,1.86,4.44,2.92,7.07,2.92s5.21-1.06,7.07-2.92s2.93-4.44,2.93-7.08C241.52,417.306,240.45,414.726,238.59,412.866z" fill="#FFFFFF"/>
	</g>
</g>
<g>
</g>
<g>
</g>
<g>
</g>
<g>
</g>
<g>
</g>
<g>
</g>
<g>
</g>
<g>
</g>
<g>
</g>
<g>
</g>
<g>
</g>
<g>
</g>
<g>
</g>
<g>
</g>
<g>
</g>
</svg>
