<?xml version="1.0" encoding="iso-8859-1"?>
<!-- Generator: Adobe Illustrator 17.1.0, SVG Export Plug-In . SVG Version: 6.00 Build 0)  -->
<!DOCTYPE svg PUBLIC "-//W3C//DTD SVG 1.1//EN" "http://www.w3.org/Graphics/SVG/1.1/DTD/svg11.dtd">
<svg xmlns="http://www.w3.org/2000/svg" xmlns:xlink="http://www.w3.org/1999/xlink" version="1.1" id="Capa_1" x="0px" y="0px" viewBox="0 0 470.004 470.004" style="enable-background:new 0 0 470.004 470.004;" xml:space="preserve" width="512px" height="512px">
<path d="M467.979,198.365L360.399,83.432c-0.06-0.064-0.121-0.127-0.183-0.189c-6.758-7.102-19.452-13.929-29.041-15.596  l-42.165-7.332V22.964c2.911-1.031,5-3.8,5-7.064c0-4.142-3.357-7.5-7.5-7.5H183.489c-4.143,0-7.5,3.358-7.5,7.5  c0,3.264,2.089,6.033,5,7.064v37.351l-42.165,7.332c-9.673,1.682-22.508,8.615-29.22,15.785L2.024,198.365  C0.724,199.754,0,201.587,0,203.49v151.871c0,6.185,3.501,11.567,8.624,14.271v18.019c0,4.142,3.357,7.5,7.5,7.5h49.824  c4.143,0,7.5-3.358,7.5-7.5v-18.019c5.123-2.704,8.624-8.087,8.624-14.271l-0.001-109.079l35.76-37.675v202.811  c0,9.421,5.99,17.468,14.361,20.535v22.15c0,4.142,3.357,7.5,7.5,7.5h190.615c4.143,0,7.5-3.358,7.5-7.5v-22.15  c8.371-3.067,14.361-11.115,14.361-20.535V208.608l35.759,37.673v103.343c0,0.026,0.004,0.052,0.004,0.078v5.659  c0,6.185,3.501,11.567,8.624,14.271v18.019c0,4.142,3.357,7.5,7.5,7.5h49.824c4.143,0,7.5-3.358,7.5-7.5v-18.019  c5.123-2.704,8.624-8.087,8.624-14.271V203.49C470.004,201.587,469.28,199.754,467.979,198.365z M147.192,446.604V433.28h175.615  v13.324H147.192z M411.556,380.151v-16.166c0-4.142-3.357-7.5-7.5-7.5c-0.62,0-1.124-0.504-1.124-1.124l0.001-151.871  c0-4.142-3.357-7.5-7.5-7.5c-4.147,0-7.505,3.358-7.505,7.5v21.003l-37.819-39.844c-2.111-2.226-5.367-2.94-8.219-1.802  c-2.851,1.137-4.721,3.897-4.721,6.966v221.607c0,3.783-3.078,6.861-6.861,6.861H139.692c-3.783,0-6.861-3.078-6.861-6.861V189.812  c0-3.069-1.87-5.829-4.721-6.966c-2.85-1.138-6.106-0.423-8.219,1.802l-37.82,39.846l0-21.004c0-4.142-3.357-7.5-7.5-7.5  s-7.5,3.358-7.5,7.5l0.001,151.871c0,0.62-0.504,1.124-1.124,1.124H46.124c-4.143,0-7.5,3.358-7.5,7.5s3.357,7.5,7.5,7.5h12.324  v8.666H23.624v-16.166c0-4.142-3.357-7.5-7.5-7.5c-0.62,0-1.124-0.504-1.124-1.124V206.452L120.556,93.683  c4.547-4.857,14.285-10.118,20.839-11.258l48.38-8.413c3.592-0.625,6.215-3.743,6.215-7.389V23.4h16.007v43.223  c0,4.142,3.357,7.5,7.5,7.5s7.5-3.358,7.5-7.5V23.4h16.008v43.223c0,4.142,3.357,7.5,7.5,7.5s7.5-3.358,7.5-7.5V23.4h16.007v43.223  c0,3.646,2.623,6.764,6.215,7.389l48.38,8.413c6.555,1.14,16.292,6.4,20.838,11.257c0.053,0.056,0.106,0.112,0.16,0.166  l105.4,112.604v148.909c0,0.62-0.504,1.124-1.124,1.124h-19.824c-4.143,0-7.5,3.358-7.5,7.5s3.357,7.5,7.5,7.5h12.324v8.666H411.556  z" fill="#FFFFFF"/>
<g>
</g>
<g>
</g>
<g>
</g>
<g>
</g>
<g>
</g>
<g>
</g>
<g>
</g>
<g>
</g>
<g>
</g>
<g>
</g>
<g>
</g>
<g>
</g>
<g>
</g>
<g>
</g>
<g>
</g>
</svg>
