<?xml version="1.0" encoding="iso-8859-1"?>
<!-- Generator: Adobe Illustrator 19.0.0, SVG Export Plug-In . SVG Version: 6.00 Build 0)  -->
<svg xmlns="http://www.w3.org/2000/svg" xmlns:xlink="http://www.w3.org/1999/xlink" version="1.1" id="Layer_1" x="0px" y="0px" viewBox="0 0 512 512" style="enable-background:new 0 0 512 512;" xml:space="preserve" width="512px" height="512px">
<g>
	<g>
		<path d="M387.248,195.876c-6.666,0-12.075,5.41-12.075,12.076s5.41,12.075,12.075,12.075s12.076-5.41,12.076-12.075    S393.914,195.876,387.248,195.876z" fill="#FFFFFF"/>
	</g>
</g>
<g>
	<g>
		<path d="M256,37.881c-6.666,0-12.075,5.41-12.075,12.076c0,6.678,5.41,12.075,12.075,12.075s12.076-5.398,12.076-12.075    C268.076,43.291,262.666,37.881,256,37.881z" fill="#FFFFFF"/>
	</g>
</g>
<g>
	<g>
		<path d="M359.632,74.158V12.076C359.632,5.406,354.226,0,347.556,0H164.444c-6.669,0-12.076,5.406-12.076,12.076v62.082    c-69.215,1.874-124.945,58.76-124.945,128.42v297.346c0,6.669,5.406,12.075,12.075,12.075h85.253h262.497h85.253    c6.669,0,12.075-5.406,12.075-12.075V202.578C484.577,132.918,428.847,76.032,359.632,74.158z M311.378,24.151h24.103v49.956    h-24.103V24.151z M176.519,24.151h110.708v49.956H176.519V24.151z M112.676,487.849H51.574v-27.351h61.102V487.849z     M243.925,487.849H136.827v-27.351h107.097V487.849z M243.925,436.347H136.827V207.952c0-6.669-5.406-12.076-12.075-12.076    c-6.669,0-12.076,5.406-12.076,12.076v228.395H51.574V202.578c0-57.522,46.797-104.32,104.32-104.32h8.549h79.481V436.347z     M375.173,487.849H268.076v-27.351h107.097V487.849z M460.426,487.849h-61.102v-27.351h61.102V487.849z M460.426,436.347h-61.102    V245.881c0-6.669-5.406-12.075-12.076-12.075c-6.669,0-12.075,5.406-12.075,12.075v190.466H268.076V98.258h79.481h8.549    c57.523,0,104.32,46.798,104.32,104.32V436.347z" fill="#FFFFFF"/>
	</g>
</g>
<g>
	<g>
		<path d="M347.556,243.925h-7.414h-43.291h-4.226c-6.669,0-12.075,5.406-12.075,12.075s5.406,12.076,12.075,12.076h4.226h43.291    h7.414c6.669,0,12.076-5.406,12.076-12.076S354.226,243.925,347.556,243.925z" fill="#FFFFFF"/>
	</g>
</g>
<g>
</g>
<g>
</g>
<g>
</g>
<g>
</g>
<g>
</g>
<g>
</g>
<g>
</g>
<g>
</g>
<g>
</g>
<g>
</g>
<g>
</g>
<g>
</g>
<g>
</g>
<g>
</g>
<g>
</g>
</svg>
