<svg id="Layer_1" data-name="Layer 1" xmlns="http://www.w3.org/2000/svg" viewBox="0 0 512 483.7"><defs><style>.cls-1{fill:#ccc;}</style></defs><title>wheelbarrow</title><path class="cls-1" d="M492.06,297.89L294.63,379.67a75.77,75.77,0,0,0-23.4-23.25l182.7-75.68L401,152.92,197.43,237.24l44.81,108.19a75.7,75.7,0,0,0-26.8.45L93.24,50.85,11.65,17.05,0,45.17l69.95,29L187.33,357.53a76.67,76.67,0,1,0,113.65,93,77.1,77.1,0,0,0,5.17-19.18L512,346ZM238.14,440.43a20.88,20.88,0,1,1,11.3-27.28A20.88,20.88,0,0,1,238.14,440.43Z" transform="translate(0 -14.15)"/><rect class="cls-1" x="182.47" y="39.64" width="159.55" height="132.37" transform="translate(-20.54 94.27) rotate(-22.5)"/></svg>