<svg id="Layer_1" data-name="Layer 1" xmlns="http://www.w3.org/2000/svg" viewBox="0 0 512 483.7"><defs><style>.cls-1{fill:#fff;}.cls-2{fill:#F2A809;}</style></defs><title>wheelbarrow точка</title><path class="cls-1" d="M270.49,133.42a105.68,105.68,0,0,1,51.85-91L310.62,14.15,163.21,75.21l50.66,122.3,63.57-26.33A105.48,105.48,0,0,1,270.49,133.42Z" transform="translate(0 -14.15)"/><path class="cls-1" d="M492.06,297.89L294.63,379.67a75.77,75.77,0,0,0-23.4-23.25l182.71-75.68-23.43-56.56a105.76,105.76,0,0,1-138.08-26.29l-95,39.35,44.81,108.19a75.7,75.7,0,0,0-26.8.45L93.24,50.85l-81.6-33.8L0,45.17l69.95,29L187.33,357.53a76.67,76.67,0,1,0,113.65,93,77.1,77.1,0,0,0,5.18-19.18L512,346ZM238.14,440.43a20.88,20.88,0,1,1,11.3-27.28A20.88,20.88,0,0,1,238.14,440.43Z" transform="translate(0 -14.15)"/><circle class="cls-2" cx="376.23" cy="119.27" r="88.9"/></svg>